<svg width="161" height="43" viewBox="0 0 161 43" fill="none" xmlns="http://www.w3.org/2000/svg">
<g clip-path="url(#clip0_232_7949)">
<path d="M100.763 7.91406C100.381 7.91406 100.022 7.98725 99.689 8.13362C99.353 8.27999 99.0436 8.51286 98.7642 8.82889C98.508 9.25802 98.355 9.67718 98.3018 10.0897C98.3018 13.0604 98.3018 14.5407 98.3018 14.5341H98.9005V11.916C99.1534 12.2254 99.4395 12.4582 99.7522 12.6113C100.065 12.7643 100.411 12.8408 100.783 12.8408C101.445 12.8408 102.011 12.6013 102.483 12.1189C102.952 11.6366 103.189 11.0511 103.189 10.3658C103.189 9.6805 102.952 9.11165 102.477 8.63261C102.004 8.15358 101.432 7.91406 100.767 7.91406H100.763ZM102.324 11.3372C102.154 11.6399 101.924 11.8761 101.638 12.0424C101.352 12.2087 101.046 12.2919 100.72 12.2919C100.394 12.2919 100.075 12.2087 99.7788 12.0424C99.4827 11.8761 99.2532 11.6499 99.0935 11.3638C98.9338 11.0777 98.854 10.7583 98.854 10.4024C98.854 9.85681 99.0336 9.40107 99.3929 9.03846C99.7522 8.67253 100.191 8.48957 100.71 8.48957C101.05 8.48957 101.362 8.57273 101.645 8.73907C101.928 8.9054 102.154 9.13826 102.324 9.43433C102.493 9.7304 102.576 10.0464 102.576 10.3857C102.576 10.7251 102.493 11.0344 102.32 11.3372H102.324Z" fill="#1B324F" stroke="#1B324F" stroke-width="0.332663" stroke-miterlimit="10"/>
<path d="M105.514 6.31445H104.905V12.8213H105.514V6.31445Z" fill="#1B324F" stroke="#1B324F" stroke-width="0.332663" stroke-miterlimit="10"/>
<path d="M111.403 11.78V12.8446H112.041C112.048 12.8179 112.048 11.9963 112.041 10.3762C112.041 9.72085 111.822 9.15532 111.383 8.67629C110.907 8.15401 110.308 7.89453 109.586 7.89453C108.864 7.89453 108.266 8.15734 107.79 8.68294C107.361 9.16198 107.145 9.7275 107.145 10.3762C107.145 11.0249 107.371 11.6004 107.826 12.0894C108.282 12.5784 108.868 12.8246 109.586 12.8246C110.465 12.7514 111.07 12.4021 111.406 11.78H111.403ZM108.968 12.1626C108.528 11.9464 108.216 11.6802 108.033 11.3675C107.85 11.0548 107.757 10.7288 107.757 10.3862C107.757 9.86057 107.936 9.4148 108.296 9.04222C108.655 8.67296 109.084 8.48667 109.583 8.48667C110.082 8.48667 110.508 8.67296 110.857 9.04222C110.997 9.19192 111.107 9.34827 111.186 9.51127C111.296 9.8772 111.339 10.2598 111.316 10.659C110.85 11.9064 110.069 12.4054 108.968 12.1593V12.1626Z" fill="#1B324F" stroke="#1B324F" stroke-width="0.332663" stroke-miterlimit="10"/>
<path d="M115.693 12.6582C115.643 12.5384 115.583 12.3721 115.504 12.1592C115.207 12.3189 114.915 12.3322 114.632 12.1991C114.283 11.933 114.12 11.5571 114.136 11.0647V9.07873H115.247V8.55978H114.13V6.29102H113.521V11.1645C113.514 11.5072 113.594 11.8199 113.757 12.106C114.027 12.5584 114.389 12.7979 114.852 12.8245C115.098 12.8345 115.377 12.7779 115.69 12.6582H115.693Z" fill="#1B324F" stroke="#1B324F" stroke-width="0.332663" stroke-miterlimit="10"/>
<path d="M119.476 12.8232C119.822 12.8232 120.131 12.77 120.404 12.6669C120.677 12.5637 120.923 12.4107 121.143 12.2111C121.362 12.0115 121.552 11.7487 121.715 11.4194L121.209 11.1499C121.023 11.4593 120.853 11.6789 120.693 11.8186C120.534 11.955 120.344 12.0647 120.118 12.1512C119.892 12.2344 119.659 12.2777 119.419 12.2777C118.927 12.2777 118.511 12.1047 118.175 11.752C117.839 11.4028 117.666 10.9537 117.653 10.4081H121.868C121.868 9.76938 121.695 9.23712 121.355 8.80798C120.876 8.19921 120.238 7.89648 119.443 7.89648C118.648 7.89648 118.042 8.19255 117.583 8.78469C117.217 9.25042 117.034 9.77936 117.034 10.3748C117.034 11.0069 117.25 11.5691 117.68 12.0714C118.109 12.5737 118.707 12.8232 119.473 12.8232H119.476ZM118.265 8.91776C118.594 8.62169 118.99 8.47199 119.449 8.47199C119.729 8.47199 119.995 8.53187 120.248 8.6483C120.501 8.76806 120.707 8.92109 120.86 9.11403C121.013 9.30697 121.129 9.56313 121.209 9.88581H117.719C117.843 9.45667 118.022 9.13066 118.262 8.91443L118.265 8.91776Z" fill="#1B324F" stroke="#1B324F" stroke-width="0.332663" stroke-miterlimit="10"/>
<path d="M123.943 9.04855H125.061V8.5296H123.95V8.06054C124.023 7.44179 124.19 7.06255 124.446 6.92616C124.732 6.7931 125.021 6.8064 125.317 6.96608C125.394 6.75318 125.457 6.58685 125.507 6.46709C125.204 6.28412 124.925 6.22424 124.669 6.28412C124.166 6.30075 123.8 6.54693 123.574 7.01931C123.424 7.26548 123.348 7.57818 123.338 7.96074V12.8343H123.947V9.05188L123.943 9.04855Z" fill="#1B324F" stroke="#1B324F" stroke-width="0.332663" stroke-miterlimit="10"/>
<path d="M129.279 12.8246C129.994 12.8246 130.58 12.5784 131.039 12.0894C131.498 11.6004 131.724 11.0282 131.724 10.3762C131.724 9.72418 131.508 9.15532 131.079 8.67629C130.603 8.15401 130.004 7.89453 129.283 7.89453C128.561 7.89453 127.962 8.15734 127.486 8.68294C127.057 9.16198 126.841 9.7275 126.841 10.3762C126.841 11.0249 127.067 11.6004 127.523 12.0894C127.979 12.5784 128.564 12.8246 129.283 12.8246H129.279ZM127.992 9.04222C128.351 8.67296 128.78 8.48667 129.279 8.48667C129.778 8.48667 130.207 8.67296 130.567 9.04222C130.926 9.41147 131.106 9.86057 131.106 10.3862C131.106 10.7255 131.026 11.0415 130.863 11.3376C130.7 11.6337 130.48 11.8599 130.201 12.0196C129.921 12.1792 129.615 12.2557 129.279 12.2557C128.943 12.2557 128.644 12.1759 128.364 12.0196C128.085 11.8599 127.862 11.6337 127.699 11.3376C127.536 11.0415 127.453 10.7255 127.453 10.3862C127.453 9.86057 127.633 9.4148 127.992 9.04222Z" fill="#1B324F" stroke="#1B324F" stroke-width="0.332663" stroke-miterlimit="10"/>
<path d="M135.268 8.6667L135.58 8.16105C135.391 8.05127 135.215 7.99805 135.052 7.99805C134.829 7.99805 134.549 8.11115 134.213 8.34069C133.877 8.57023 133.608 8.9295 133.408 9.41852C133.322 9.59483 133.258 9.82437 133.212 10.1071V12.8117H133.827V11.2249C133.827 10.4963 133.864 9.99735 133.937 9.73122C134.037 9.43182 134.217 9.15571 134.479 8.89956C134.739 8.64674 135.005 8.5669 135.268 8.66337V8.6667Z" fill="#1B324F" stroke="#1B324F" stroke-width="0.332663" stroke-miterlimit="10"/>
<path d="M137.287 10.8313C137.264 10.1926 137.31 9.73021 137.423 9.44745C137.537 9.16469 137.696 8.95178 137.896 8.80874C138.095 8.66569 138.338 8.59583 138.618 8.59583C138.877 8.59583 139.093 8.65571 139.266 8.7788C139.439 8.90188 139.589 9.06156 139.716 9.26781C139.842 9.47074 139.905 9.85662 139.905 10.4222V12.8273H140.507V10.4488C140.574 9.83999 140.67 9.44745 140.797 9.27114C141.126 8.85531 141.519 8.63242 141.981 8.59916C142.227 8.59916 142.437 8.65571 142.61 8.77214C142.783 8.88858 142.906 9.03827 142.979 9.22789C143.052 9.41751 143.085 9.76015 143.085 10.2625V12.824H143.701V10.2625C143.701 9.67699 143.641 9.23787 143.518 8.9418C143.398 8.64573 143.185 8.41619 142.886 8.25652C142.586 8.09351 142.274 8.01367 141.948 8.01367C141.512 8.06357 141.232 8.1301 141.113 8.20662C140.936 8.29644 140.793 8.38958 140.68 8.48605C140.451 8.73222 140.301 8.94513 140.231 9.12809C140.101 8.842 139.972 8.6291 139.842 8.48605C139.712 8.34301 139.533 8.2299 139.3 8.14341C139.067 8.05692 138.834 8.01367 138.608 8.01367C138.255 8.02365 137.982 8.08686 137.789 8.20994C137.5 8.36962 137.264 8.58585 137.084 8.85531C136.868 9.15138 136.735 9.62043 136.682 10.2591V12.8273H137.28V10.838L137.287 10.8313Z" fill="#1B324F" stroke="#1B324F" stroke-width="0.332663" stroke-miterlimit="10"/>
<path d="M147.788 12.8232C148.134 12.8232 148.444 12.77 148.717 12.6669C148.989 12.5637 149.236 12.4107 149.455 12.2111C149.675 12.0115 149.864 11.7487 150.027 11.4194L149.522 11.1499C149.335 11.4593 149.166 11.6789 149.006 11.8186C148.846 11.955 148.657 12.0647 148.43 12.1512C148.204 12.2344 147.971 12.2777 147.732 12.2777C147.24 12.2777 146.824 12.1047 146.488 11.752C146.152 11.4028 145.979 10.9537 145.965 10.4081H150.18C150.18 9.76938 150.007 9.23712 149.668 8.80798C149.189 8.19921 148.55 7.89648 147.755 7.89648C146.96 7.89648 146.355 8.19255 145.896 8.78469C145.53 9.25042 145.347 9.77936 145.347 10.3748C145.347 11.0069 145.563 11.5691 145.992 12.0714C146.421 12.5737 147.02 12.8232 147.785 12.8232H147.788ZM146.578 8.91776C146.907 8.62169 147.303 8.47199 147.762 8.47199C148.041 8.47199 148.307 8.53187 148.56 8.6483C148.813 8.76806 149.019 8.92109 149.172 9.11403C149.325 9.30697 149.442 9.56313 149.522 9.88581H146.032C146.155 9.45667 146.335 9.13066 146.574 8.91443L146.578 8.91776Z" fill="#1B324F" stroke="#1B324F" stroke-width="0.332663" stroke-miterlimit="10"/>
<path d="M102.587 20.0028C102.334 19.6935 102.048 19.4606 101.735 19.3076C101.423 19.1546 101.077 19.078 100.704 19.078C100.042 19.078 99.4765 19.3176 99.0041 19.7999C98.5317 20.2823 98.2988 20.8678 98.2988 21.5531C98.2988 22.2383 98.535 22.8072 99.0107 23.2862C99.4831 23.7653 100.055 24.0048 100.721 24.0048C101.103 24.0048 101.462 23.9316 101.795 23.7852C102.131 23.6389 102.44 23.406 102.72 23.09C102.976 22.6608 103.129 22.2417 103.182 21.8292C103.182 18.8585 103.182 17.3781 103.182 17.3848H102.584V20.0028H102.587ZM102.091 22.8837C101.732 23.2496 101.293 23.4326 100.774 23.4326C100.435 23.4326 100.122 23.3494 99.8391 23.1831C99.5563 23.0168 99.3301 22.7839 99.1604 22.4878C98.9908 22.1918 98.9076 21.8757 98.9076 21.5364C98.9076 21.1971 98.9908 20.8877 99.1638 20.585C99.3334 20.2823 99.5629 20.0461 99.849 19.8798C100.135 19.7134 100.441 19.6303 100.767 19.6303C101.093 19.6303 101.413 19.7134 101.709 19.8798C102.005 20.0461 102.234 20.2723 102.394 20.5584C102.554 20.8445 102.633 21.1638 102.633 21.5198C102.633 22.0654 102.454 22.5211 102.095 22.8837H102.091Z" fill="#1B324F" stroke="#1B324F" stroke-width="0.332663" stroke-miterlimit="10"/>
<path d="M105.511 19.5637L105.844 19.7567C105.993 19.4672 106.09 19.2177 106.14 19.0048C106.19 18.7919 106.213 18.4992 106.213 18.1299V17.3848H105.435V18.5757H105.814C105.797 18.7686 105.767 18.9283 105.731 19.0547C105.694 19.1811 105.618 19.3508 105.511 19.5637Z" fill="#1B324F" stroke="#1B324F" stroke-width="0.332663" stroke-miterlimit="10"/>
<path d="M112.806 19.9896C112.327 19.3808 111.688 19.0781 110.893 19.0781C110.098 19.0781 109.492 19.3742 109.033 19.9663C108.667 20.4321 108.484 20.961 108.484 21.5565C108.484 22.1885 108.701 22.7507 109.13 23.253C109.559 23.7554 110.158 24.0049 110.923 24.0049C111.269 24.0049 111.578 23.9516 111.851 23.8485C112.124 23.7454 112.37 23.5924 112.589 23.3928C112.809 23.1932 112.999 22.9304 113.162 22.601L112.656 22.3316C112.47 22.6409 112.3 22.8605 112.14 23.0002C111.981 23.1366 111.791 23.2464 111.565 23.3329C111.339 23.416 111.106 23.4593 110.866 23.4593C110.374 23.4593 109.958 23.2863 109.622 22.9337C109.286 22.5844 109.113 22.1353 109.1 21.5897H113.315C113.315 20.951 113.142 20.4188 112.802 19.9896H112.806ZM109.17 21.0741C109.293 20.645 109.472 20.319 109.712 20.1027C110.041 19.8067 110.437 19.657 110.896 19.657C111.176 19.657 111.442 19.7168 111.695 19.8333C111.947 19.953 112.154 20.1061 112.307 20.299C112.46 20.4919 112.576 20.7481 112.656 21.0708H109.166L109.17 21.0741Z" fill="#1B324F" stroke="#1B324F" stroke-width="0.332663" stroke-miterlimit="10"/>
<path d="M118.651 24.0044L116.842 21.5394L118.452 19.3105H117.727L116.482 21.0504L115.242 19.3105H114.52L116.123 21.5394L114.347 24.0044H115.065L116.482 22.0317L117.919 24.0044H118.651Z" fill="#1B324F" stroke="#1B324F" stroke-width="0.332663" stroke-miterlimit="10"/>
<path d="M123.844 22.3355C123.658 22.6449 123.488 22.8644 123.328 23.0041C123.169 23.1405 122.979 23.2503 122.753 23.3368C122.527 23.42 122.294 23.4632 122.054 23.4632C121.562 23.4632 121.146 23.2902 120.81 22.9376C120.474 22.5883 120.301 22.1392 120.288 21.5936H124.503C124.503 20.9549 124.33 20.4227 123.99 19.9935C123.511 19.3848 122.872 19.082 122.077 19.082C121.282 19.082 120.677 19.3781 120.218 19.9702C119.852 20.436 119.669 20.9649 119.669 21.5604C119.669 22.1924 119.885 22.7546 120.314 23.257C120.743 23.7593 121.342 24.0088 122.107 24.0088C122.453 24.0088 122.763 23.9555 123.035 23.8524C123.308 23.7493 123.554 23.5963 123.774 23.3967C123.994 23.1971 124.183 22.9343 124.346 22.6049L123.841 22.3355H123.844ZM120.896 20.1033C121.226 19.8072 121.622 19.6575 122.081 19.6575C122.36 19.6575 122.626 19.7174 122.879 19.8338C123.132 19.9536 123.338 20.1066 123.491 20.2996C123.644 20.4925 123.761 20.7487 123.841 21.0714H120.351C120.474 20.6422 120.654 20.3162 120.893 20.1L120.896 20.1033Z" fill="#1B324F" stroke="#1B324F" stroke-width="0.332663" stroke-miterlimit="10"/>
<path d="M128.371 19.3446C128.182 19.2349 128.006 19.1816 127.843 19.1816C127.62 19.1816 127.34 19.2947 127.004 19.5243C126.668 19.7538 126.399 20.1131 126.199 20.6021C126.113 20.7784 126.05 21.008 126.003 21.2907V23.9953H126.618V22.4085C126.618 21.6799 126.655 21.1809 126.728 20.9148C126.828 20.6154 127.008 20.3393 127.27 20.0832C127.53 19.8303 127.796 19.7505 128.059 19.847L128.371 19.3413V19.3446Z" fill="#1B324F" stroke="#1B324F" stroke-width="0.332663" stroke-miterlimit="10"/>
<path d="M131.708 19.6442C132.423 19.6442 132.989 19.9203 133.401 20.4759L133.88 20.1765C133.74 19.9403 133.571 19.744 133.368 19.591C133.165 19.438 132.919 19.3149 132.629 19.2217C132.34 19.1286 132.041 19.082 131.734 19.082C131.239 19.082 130.79 19.1918 130.394 19.408C129.995 19.6276 129.682 19.9303 129.452 20.3195C129.223 20.7088 129.106 21.1312 129.106 21.587C129.106 22.259 129.353 22.8311 129.842 23.3035C130.331 23.7726 130.946 24.0088 131.685 24.0088C132.17 24.0088 132.599 23.9156 132.979 23.7327C133.358 23.5497 133.657 23.2869 133.883 22.9509L133.404 22.6382C132.969 23.1871 132.403 23.4599 131.711 23.4599C131.335 23.4599 130.996 23.3767 130.693 23.2104C130.391 23.044 130.151 22.8112 129.978 22.5051C129.805 22.2024 129.719 21.8797 129.719 21.5371C129.719 21.0081 129.908 20.5624 130.284 20.1931C130.663 19.8239 131.139 19.6409 131.711 19.6409L131.708 19.6442Z" fill="#1B324F" stroke="#1B324F" stroke-width="0.332663" stroke-miterlimit="10"/>
<path d="M135.357 17.8765C135.357 18.0129 135.407 18.1327 135.504 18.2291C135.6 18.3289 135.717 18.3755 135.853 18.3755C135.989 18.3755 136.109 18.3256 136.206 18.2291C136.302 18.1327 136.352 18.0129 136.352 17.8765C136.352 17.7401 136.302 17.6237 136.206 17.5272C136.106 17.4308 135.989 17.3809 135.853 17.3809C135.717 17.3809 135.6 17.4308 135.504 17.5272C135.407 17.6237 135.357 17.7401 135.357 17.8765Z" fill="#1B324F" stroke="#1B324F" stroke-width="0.332663" stroke-miterlimit="10"/>
<path d="M136.156 19.3105H135.554V24.0044H136.156V19.3105Z" fill="#1B324F" stroke="#1B324F" stroke-width="0.332663" stroke-miterlimit="10"/>
<path d="M142.563 22.9503L142.084 22.6376C141.648 23.1865 141.082 23.4593 140.39 23.4593C140.015 23.4593 139.675 23.3761 139.373 23.2098C139.07 23.0435 138.83 22.8106 138.657 22.5046C138.484 22.2018 138.398 21.8791 138.398 21.5365C138.398 21.0076 138.587 20.5618 138.963 20.1925C139.343 19.8233 139.818 19.6403 140.39 19.6403C141.106 19.6403 141.671 19.9164 142.084 20.472L142.563 20.1726C142.423 19.9364 142.253 19.7401 142.05 19.5871C141.848 19.4341 141.601 19.311 141.312 19.2178C141.023 19.1247 140.723 19.0781 140.417 19.0781C139.921 19.0781 139.472 19.1879 139.076 19.4041C138.677 19.6237 138.365 19.9264 138.135 20.3156C137.905 20.7048 137.789 21.1273 137.789 21.5831C137.789 22.2551 138.035 22.8272 138.524 23.2996C139.013 23.7687 139.629 24.0049 140.367 24.0049C140.853 24.0049 141.282 23.9117 141.661 23.7288C142.04 23.5458 142.34 23.283 142.566 22.947L142.563 22.9503Z" fill="#1B324F" stroke="#1B324F" stroke-width="0.332663" stroke-miterlimit="10"/>
<path d="M148.201 23.3967C148.421 23.1971 148.61 22.9343 148.773 22.6049L148.268 22.3355C148.081 22.6449 147.912 22.8644 147.752 23.0041C147.592 23.1405 147.403 23.2503 147.177 23.3368C146.95 23.42 146.717 23.4632 146.478 23.4632C145.986 23.4632 145.57 23.2902 145.234 22.9376C144.898 22.5883 144.725 22.1392 144.712 21.5936H148.926C148.926 20.9549 148.753 20.4227 148.414 19.9935C147.935 19.3848 147.296 19.082 146.501 19.082C145.706 19.082 145.101 19.3781 144.642 19.9702C144.276 20.436 144.093 20.9649 144.093 21.5604C144.093 22.1924 144.309 22.7546 144.738 23.257C145.167 23.7593 145.766 24.0088 146.531 24.0088C146.877 24.0088 147.187 23.9555 147.459 23.8524C147.732 23.7493 147.978 23.5963 148.198 23.3967H148.201ZM145.324 20.1033C145.653 19.8072 146.049 19.6575 146.508 19.6575C146.787 19.6575 147.053 19.7174 147.306 19.8338C147.559 19.9536 147.765 20.1066 147.918 20.2996C148.071 20.4925 148.188 20.7487 148.268 21.0714H144.778C144.901 20.6422 145.081 20.3162 145.32 20.1L145.324 20.1033Z" fill="#1B324F" stroke="#1B324F" stroke-width="0.332663" stroke-miterlimit="10"/>
<path d="M100.763 30.2832C100.381 30.2832 100.022 30.3564 99.689 30.5028C99.353 30.6491 99.0436 30.882 98.7642 31.198C98.508 31.6272 98.355 32.0463 98.3018 32.4588C98.3018 35.4295 98.3018 36.9098 98.3018 36.9032H98.9005V34.2851C99.1534 34.5945 99.4395 34.8274 99.7522 34.9804C100.065 35.1334 100.411 35.2099 100.783 35.2099C101.445 35.2099 102.011 34.9704 102.483 34.4881C102.952 34.0057 103.189 33.4202 103.189 32.7349C103.189 32.0496 102.952 31.4808 102.477 31.0018C102.004 30.5227 101.432 30.2832 100.767 30.2832H100.763ZM102.324 33.7063C102.154 34.009 101.924 34.2452 101.638 34.4116C101.352 34.5779 101.046 34.661 100.72 34.661C100.394 34.661 100.075 34.5779 99.7788 34.4116C99.4827 34.2452 99.2532 34.019 99.0935 33.7329C98.9338 33.4468 98.854 33.1275 98.854 32.7715C98.854 32.226 99.0336 31.7702 99.3929 31.4076C99.7522 31.0417 100.191 30.8587 100.71 30.8587C101.05 30.8587 101.362 30.9419 101.645 31.1082C101.928 31.2745 102.154 31.5074 102.324 31.8035C102.493 32.0995 102.576 32.4156 102.576 32.7549C102.576 33.0942 102.493 33.4036 102.32 33.7063H102.324Z" fill="#1B324F" stroke="#1B324F" stroke-width="0.332663" stroke-miterlimit="10"/>
<path d="M105.77 30.7073C105.434 30.9368 105.164 31.2961 104.965 31.7851C104.878 31.9614 104.815 32.191 104.769 32.4737V35.1783H105.384V33.5915C105.384 32.863 105.421 32.364 105.494 32.0978C105.594 31.7984 105.773 31.5223 106.036 31.2662C106.295 31.0133 106.562 30.9335 106.824 31.03L107.137 30.5243C106.947 30.4146 106.771 30.3613 106.608 30.3613C106.385 30.3613 106.106 30.4744 105.77 30.704V30.7073Z" fill="#1B324F" stroke="#1B324F" stroke-width="0.332663" stroke-miterlimit="10"/>
<path d="M110.315 30.2617C109.593 30.2617 108.994 30.5245 108.518 31.0501C108.089 31.5292 107.873 32.0947 107.873 32.7434C107.873 33.3921 108.099 33.9676 108.555 34.4566C109.011 34.9456 109.596 35.1918 110.315 35.1918C111.033 35.1918 111.616 34.9456 112.075 34.4566C112.534 33.9676 112.76 33.3954 112.76 32.7434C112.76 32.0914 112.544 31.5225 112.114 31.0435C111.639 30.5212 111.04 30.2617 110.318 30.2617H110.315ZM111.898 33.7048C111.735 34.0008 111.516 34.2271 111.236 34.3867C110.957 34.5464 110.651 34.6229 110.315 34.6229C109.979 34.6229 109.679 34.5431 109.4 34.3867C109.121 34.2271 108.898 34.0008 108.735 33.7048C108.572 33.4087 108.488 33.0927 108.488 32.7534C108.488 32.2278 108.668 31.782 109.027 31.4094C109.387 31.0401 109.816 30.8539 110.315 30.8539C110.814 30.8539 111.243 31.0401 111.602 31.4094C111.961 31.7787 112.141 32.2278 112.141 32.7534C112.141 33.0927 112.061 33.4087 111.898 33.7048Z" fill="#1B324F" stroke="#1B324F" stroke-width="0.332663" stroke-miterlimit="10"/>
<path d="M115.541 28.646C115.038 28.6627 114.672 28.9088 114.446 29.3812C114.296 29.6274 114.22 29.9401 114.21 30.3227V35.1962H114.819V31.4138H115.936V30.8948H114.825V30.4258C114.899 29.807 115.065 29.4278 115.321 29.2914C115.607 29.1583 115.897 29.1716 116.193 29.3313C116.269 29.1184 116.332 28.9521 116.382 28.8323C116.08 28.6494 115.8 28.5895 115.544 28.6494L115.541 28.646Z" fill="#1B324F" stroke="#1B324F" stroke-width="0.332663" stroke-miterlimit="10"/>
<path d="M122.034 31.1732C121.555 30.5644 120.916 30.2617 120.121 30.2617C119.326 30.2617 118.721 30.5578 118.262 31.1499C117.896 31.6157 117.713 32.1446 117.713 32.7401C117.713 33.3721 117.929 33.9343 118.358 34.4366C118.787 34.939 119.386 35.1885 120.151 35.1885C120.497 35.1885 120.807 35.1352 121.079 35.0321C121.352 34.929 121.598 34.776 121.818 34.5764C122.038 34.3768 122.227 34.114 122.39 33.7846L121.884 33.5152C121.698 33.8245 121.529 34.0441 121.369 34.1838C121.209 34.3202 121.02 34.43 120.793 34.5165C120.567 34.5996 120.334 34.6429 120.095 34.6429C119.602 34.6429 119.187 34.4699 118.851 34.1173C118.515 33.768 118.342 33.3189 118.328 32.7733H122.543C122.543 32.1346 122.37 31.6023 122.031 31.1732H122.034ZM118.395 32.2577C118.518 31.8286 118.698 31.5026 118.937 31.2863C119.266 30.9903 119.662 30.8406 120.121 30.8406C120.401 30.8406 120.667 30.9004 120.92 31.0169C121.173 31.1366 121.379 31.2896 121.532 31.4826C121.685 31.6755 121.801 31.9317 121.881 32.2544H118.392L118.395 32.2577Z" fill="#1B324F" stroke="#1B324F" stroke-width="0.332663" stroke-miterlimit="10"/>
<path d="M125.487 32.4074C125.118 32.2178 124.879 32.0514 124.765 31.9084C124.649 31.772 124.589 31.629 124.589 31.4793C124.589 31.303 124.659 31.1499 124.799 31.0202C124.938 30.8905 125.108 30.8272 125.304 30.8272C125.61 30.8272 125.923 30.9836 126.249 31.2963L126.635 30.8938C126.196 30.4713 125.76 30.2617 125.331 30.2617C124.962 30.2617 124.656 30.3781 124.413 30.6143C124.17 30.8505 124.047 31.1466 124.047 31.5025C124.047 31.7753 124.123 32.0182 124.276 32.2311C124.426 32.4473 124.716 32.6635 125.141 32.8764C125.534 33.0794 125.787 33.2457 125.9 33.3821C126.01 33.5152 126.066 33.6715 126.066 33.8445C126.066 34.0541 125.983 34.2337 125.81 34.3901C125.64 34.5464 125.434 34.6229 125.195 34.6229C124.849 34.6229 124.523 34.4499 124.213 34.1006L123.834 34.5331C123.994 34.7427 124.197 34.9024 124.443 35.0188C124.689 35.1352 124.948 35.1918 125.218 35.1918C125.624 35.1918 125.96 35.0587 126.229 34.7926C126.499 34.5265 126.635 34.2004 126.635 33.8179C126.635 33.5451 126.555 33.2989 126.399 33.076C126.239 32.8598 125.933 32.6369 125.484 32.4041L125.487 32.4074Z" fill="#1B324F" stroke="#1B324F" stroke-width="0.332663" stroke-miterlimit="10"/>
<path d="M129.516 32.4074C129.146 32.2178 128.907 32.0514 128.794 31.9084C128.677 31.772 128.617 31.629 128.617 31.4793C128.617 31.303 128.687 31.1499 128.827 31.0202C128.967 30.8905 129.136 30.8272 129.333 30.8272C129.639 30.8272 129.951 30.9836 130.277 31.2963L130.663 30.8938C130.224 30.4713 129.788 30.2617 129.359 30.2617C128.99 30.2617 128.684 30.3781 128.441 30.6143C128.198 30.8505 128.075 31.1466 128.075 31.5025C128.075 31.7753 128.152 32.0182 128.305 32.2311C128.454 32.4473 128.744 32.6635 129.17 32.8764C129.562 33.0794 129.815 33.2457 129.928 33.3821C130.038 33.5152 130.094 33.6715 130.094 33.8445C130.094 34.0541 130.011 34.2337 129.838 34.3901C129.669 34.5464 129.462 34.6229 129.223 34.6229C128.877 34.6229 128.551 34.4499 128.242 34.1006L127.862 34.5331C128.022 34.7427 128.225 34.9024 128.471 35.0188C128.717 35.1352 128.977 35.1918 129.246 35.1918C129.652 35.1918 129.988 35.0587 130.257 34.7926C130.527 34.5265 130.663 34.2004 130.663 33.8179C130.663 33.5451 130.583 33.2989 130.427 33.076C130.267 32.8598 129.961 32.6369 129.512 32.4041L129.516 32.4074Z" fill="#1B324F" stroke="#1B324F" stroke-width="0.332663" stroke-miterlimit="10"/>
<path d="M132.54 28.5664C132.403 28.5664 132.287 28.6163 132.19 28.7128C132.094 28.8092 132.044 28.9257 132.044 29.0621C132.044 29.1985 132.094 29.3182 132.19 29.4147C132.287 29.5145 132.403 29.5611 132.54 29.5611C132.676 29.5611 132.796 29.5112 132.892 29.4147C132.989 29.3182 133.039 29.1985 133.039 29.0621C133.039 28.9257 132.989 28.8092 132.892 28.7128C132.792 28.6163 132.676 28.5664 132.54 28.5664Z" fill="#1B324F" stroke="#1B324F" stroke-width="0.332663" stroke-miterlimit="10"/>
<path d="M132.842 30.4961H132.24V35.19H132.842V30.4961Z" fill="#1B324F" stroke="#1B324F" stroke-width="0.332663" stroke-miterlimit="10"/>
<path d="M136.914 30.2617C136.193 30.2617 135.594 30.5245 135.118 31.0501C134.689 31.5292 134.473 32.0947 134.473 32.7434C134.473 33.3921 134.699 33.9676 135.155 34.4566C135.61 34.9456 136.196 35.1918 136.914 35.1918C137.633 35.1918 138.215 34.9456 138.674 34.4566C139.133 33.9676 139.359 33.3954 139.359 32.7434C139.359 32.0914 139.143 31.5225 138.714 31.0435C138.238 30.5212 137.64 30.2617 136.918 30.2617H136.914ZM138.498 33.7048C138.335 34.0008 138.115 34.2271 137.836 34.3867C137.556 34.5464 137.25 34.6229 136.914 34.6229C136.578 34.6229 136.279 34.5431 136 34.3867C135.72 34.2271 135.497 34.0008 135.334 33.7048C135.171 33.4087 135.088 33.0927 135.088 32.7534C135.088 32.2278 135.268 31.782 135.627 31.4094C135.986 31.0401 136.415 30.8539 136.914 30.8539C137.413 30.8539 137.843 31.0401 138.202 31.4094C138.561 31.7787 138.741 32.2278 138.741 32.7534C138.741 33.0927 138.661 33.4087 138.498 33.7048Z" fill="#1B324F" stroke="#1B324F" stroke-width="0.332663" stroke-miterlimit="10"/>
<path d="M144.322 30.642C144.023 30.4624 143.694 30.3759 143.341 30.3759C142.889 30.3659 142.483 30.4391 142.13 30.5888C141.917 30.7086 141.708 30.8782 141.501 31.0978C141.292 31.3473 141.152 31.7431 141.092 32.2821C141.062 32.4517 141.052 32.6613 141.062 32.9075L141.072 33.4065V35.1862H141.681V33.4663C141.681 32.8476 141.708 32.4218 141.761 32.1856C141.741 31.8197 141.874 31.5336 142.16 31.3207C142.446 31.1111 142.769 31.0046 143.135 31.0046C143.547 31.0046 143.86 31.0712 144.073 31.2009C144.283 31.3306 144.426 31.5502 144.495 31.8629C144.542 32.0459 144.565 32.4085 144.565 32.9507V35.1895H145.164V32.7777C145.164 32.1357 145.101 31.6633 144.971 31.3639C144.841 31.0645 144.628 30.825 144.326 30.6454L144.322 30.642Z" fill="#1B324F" stroke="#1B324F" stroke-width="0.332663" stroke-miterlimit="10"/>
<path d="M150.304 30.642C150.004 30.4624 149.675 30.3759 149.323 30.3759C148.87 30.3659 148.464 30.4391 148.112 30.5888C147.899 30.7086 147.689 30.8782 147.483 31.0978C147.273 31.3473 147.134 31.7431 147.074 32.2821C147.044 32.4517 147.034 32.6613 147.044 32.9075L147.054 33.4065V35.1862H147.663V33.4663C147.663 32.8476 147.689 32.4218 147.742 32.1856C147.722 31.8197 147.855 31.5336 148.142 31.3207C148.428 31.1111 148.75 31.0046 149.116 31.0046C149.529 31.0046 149.841 31.0712 150.054 31.2009C150.264 31.3306 150.407 31.5502 150.477 31.8629C150.523 32.0459 150.547 32.4085 150.547 32.9507V35.1895H151.146V32.7777C151.146 32.1357 151.082 31.6633 150.953 31.3639C150.823 31.0645 150.61 30.825 150.307 30.6454L150.304 30.642Z" fill="#1B324F" stroke="#1B324F" stroke-width="0.332663" stroke-miterlimit="10"/>
<path d="M157.127 31.1732C156.648 30.5644 156.009 30.2617 155.214 30.2617C154.419 30.2617 153.814 30.5578 153.355 31.1499C152.989 31.6157 152.806 32.1446 152.806 32.7401C152.806 33.3721 153.022 33.9343 153.451 34.4366C153.88 34.939 154.479 35.1885 155.244 35.1885C155.59 35.1885 155.899 35.1352 156.172 35.0321C156.445 34.929 156.691 34.776 156.911 34.5764C157.13 34.3768 157.32 34.114 157.483 33.7846L156.977 33.5152C156.791 33.8245 156.621 34.0441 156.462 34.1838C156.302 34.3202 156.112 34.43 155.886 34.5165C155.66 34.5996 155.427 34.6429 155.188 34.6429C154.695 34.6429 154.279 34.4699 153.943 34.1173C153.607 33.768 153.434 33.3189 153.421 32.7733H157.636C157.636 32.1346 157.463 31.6023 157.124 31.1732H157.127ZM153.488 32.2577C153.611 31.8286 153.79 31.5026 154.03 31.2863C154.359 30.9903 154.755 30.8406 155.214 30.8406C155.494 30.8406 155.76 30.9004 156.013 31.0169C156.265 31.1366 156.472 31.2896 156.625 31.4826C156.778 31.6755 156.894 31.9317 156.974 32.2544H153.484L153.488 32.2577Z" fill="#1B324F" stroke="#1B324F" stroke-width="0.332663" stroke-miterlimit="10"/>
<path d="M159.884 28.6816H159.275V35.1885H159.884V28.6816Z" fill="#1B324F" stroke="#1B324F" stroke-width="0.332663" stroke-miterlimit="10"/>
<path d="M89.483 7.94123C84.33 -2.36467 71.293 -2.00207 65.3683 5.43295L59.4834 11.8267C59.4834 11.8267 59.4834 11.8167 59.4834 11.8134L55.8474 15.7588H55.8674L52.0351 19.9237H52.0385C48.9547 23.5232 43.5456 23.9357 39.9495 20.8552C38.4226 19.5478 37.4046 17.7448 37.0753 15.7621H53.4223L59.0344 9.67108C57.0916 4.05905 51.8156 0.000565329 45.5415 0.000565329C40.7179 0.000565329 37.2283 2.02981 33.9283 6.09828C29.79 10.699 25.1061 15.8686 21.9192 19.0621C20.2425 21.0814 17.5214 22.941 14.3245 22.941C9.57736 22.941 5.72845 19.0921 5.73178 14.345C5.73178 9.59789 9.58069 5.74898 14.3278 5.75231C19.0749 5.75231 22.9238 9.60122 22.9205 14.3483C22.9205 14.5047 22.8406 14.6344 22.8307 14.7874L27.8206 9.66442C27.6277 9.07894 27.3981 8.50343 27.1353 7.94455C20.3789 -5.58152 0 -0.771213 0 14.3483V43.0006H5.73178V25.8086C12.2353 30.6887 19.8467 29.0354 24.464 24.3814C24.464 24.3814 38.6321 9.19204 38.9482 8.81946C41.9854 5.1768 47.4011 4.68779 51.0405 7.725C51.8189 8.37369 52.4742 9.15212 52.9799 10.0304H40.6148L31.9922 18.8825C33.9383 24.7141 39.3939 28.6462 45.5415 28.6528C49.7131 28.6528 53.399 26.8099 56.0138 23.9589L69.307 9.75424L69.6596 9.37833C70.7541 8.04768 73.2258 5.79223 76.6688 5.74898C81.4159 5.74898 85.2648 9.59456 85.2648 14.3417C85.2648 19.0888 81.4192 22.9377 76.6721 22.9377C71.925 22.9377 68.0761 19.0921 68.0761 14.345C68.0761 14.0622 68.2125 13.8227 68.2391 13.5433L62.3477 19.8173V42.9972H68.0795V25.8052C80.1718 34.8769 96.246 21.4573 89.4863 7.94123H89.483Z" fill="url(#paint0_linear_232_7949)"/>
</g>
<defs>
<linearGradient id="paint0_linear_232_7949" x1="0.462801" y1="21.0115" x2="91.0904" y2="21.0115" gradientUnits="userSpaceOnUse">
<stop stop-color="#FF2B44"/>
<stop offset="1" stop-color="#1B324F"/>
</linearGradient>
<clipPath id="clip0_232_7949">
<rect width="160.047" height="43" fill="white"/>
</clipPath>
</defs>
</svg>
